# xmcd
#
# Track frame offsets:
#	166
#	14696
#	26033
#	39835
#	54401
#	64805
#	75669
#	85417
#	95187
#	106408
#	119630
#	129155
#	139295
#
# Disc length: 1943 seconds
#
# Revision: 2
# Processed by: cddbd v1.5.2PL0 Copyright (c) Steve Scherf et al.
# Submitted via: audiograbber 1.83.01
#
DISCID=b307950d
DTITLE=The Quotes - The Quotes
DYEAR=2007
DGENRE=power pop
TTITLE0=Life's Like A Metaphor
TTITLE1=Mass Produced
TTITLE2=Blood On My Hands
TTITLE3=Just What I Want
TTITLE4=Living A Straight Line
TTITLE5=Help You Ann
TTITLE6=She Got Me
TTITLE7=The Referee
TTITLE8=Lipstick
TTITLE9=Ultrahigh
TTITLE10=One Track Mind
TTITLE11=Together Depressed
TTITLE12=Shut Me Down
EXTD=
EXTT0=
EXTT1=
EXTT2=
EXTT3=
EXTT4=
EXTT5=
EXTT6=
EXTT7=
EXTT8=
EXTT9=
EXTT10=
EXTT11=
EXTT12=
PLAYORDER=
